<svg id="Capa_1" enable-background="new 0 0 511.126 511.126" height="512" viewBox="0 0 511.126 511.126" width="512" xmlns="http://www.w3.org/2000/svg"><g><g><g><path d="m488.724 119.573c0-13.05-10.579-23.629-23.629-23.629h-418.064c-13.05 0-23.629 10.579-23.629 23.629v286.84h465.322z" fill="#b5adb6"/></g><g><path d="m119.35 368.89c-16.836 0-30.485-13.649-30.485-30.485v-218.832c0-13.05 10.579-23.629 23.629-23.629h-65.463c-13.05 0-23.629 10.579-23.629 23.629v286.84h60.432 5.031 399.859v-37.523z" fill="#a79ba7"/><path d="m466.406 433.185h-421.686c-20.556 0-37.22-16.664-37.22-37.22v-4.026c0-2.236 1.813-4.049 4.049-4.049h488.029c2.236 0 4.049 1.813 4.049 4.049v4.026c-.001 20.556-16.665 37.22-37.221 37.22z" fill="#b5adb6"/><path d="m458.724 132.416v219.002c0 3.575-2.898 6.472-6.472 6.472h-392.378c-3.575 0-6.472-2.898-6.472-6.472v-219.002c0-3.575 2.898-6.472 6.472-6.472h392.378c3.574-.001 6.472 2.897 6.472 6.472z" fill="#c8effe"/><path d="m88.865 338.405v-212.462h-28.991c-3.575 0-6.472 2.898-6.472 6.472v219.002c0 3.575 2.898 6.472 6.472 6.472h36.034c-4.397-5.282-7.043-12.073-7.043-19.484z" fill="#99e6fc"/><path d="m321.526 357.89-32.17-39.967c-17.107-21.253-49.478-21.253-66.585 0l-32.171 39.967z" fill="#fdd79b"/><path d="m256.063 158.841h-39.076c-28.144 0-50.959-22.815-50.959-50.959v-19.784c0-5.609 4.547-10.156 10.156-10.156h28.92c28.144 0 50.959 22.815 50.959 50.959z" fill="#bbec6c"/><path d="m199.114 107.883v-19.786c0-5.179 3.879-9.444 8.889-10.068-.96-.054-1.925-.087-2.898-.087h-28.92c-5.609 0-10.156 4.547-10.156 10.156v19.785c0 28.144 22.815 50.959 50.959 50.959h33.085c-28.145-.001-50.959-22.816-50.959-50.959z" fill="#a2e62e"/><path d="m256.063 158.841h39.076c28.144 0 50.959-22.815 50.959-50.959v-19.784c0-5.609-4.547-10.156-10.156-10.156h-28.92c-28.144 0-50.959 22.815-50.959 50.959z" fill="#bbec6c"/><path d="m274.872 256.087h-18.809v-15.334c0-20.557 16.665-37.222 37.222-37.222h14.092c2.605 0 4.717 2.112 4.717 4.717v10.617c-.001 20.557-16.665 37.222-37.222 37.222z" fill="#bbec6c"/><path d="m167.433 286.163h-61.051c-4.539 0-8.219-3.68-8.219-8.219v-88.173c0-4.539 3.68-8.219 8.219-8.219h61.051c4.539 0 8.219 3.68 8.219 8.219v88.173c0 4.54-3.679 8.219-8.219 8.219z" fill="#fee97d"/></g></g><g><path d="m499.578 380.39h-3.354v-260.817c0-17.165-13.965-31.129-31.129-31.129h-88.998c-4.143 0-7.5 3.358-7.5 7.5s3.357 7.5 7.5 7.5h88.998c8.894 0 16.129 7.235 16.129 16.129v260.817h-450.322v-260.817c0-8.894 7.235-16.129 16.129-16.129h88.997c4.142 0 7.5-3.358 7.5-7.5s-3.358-7.5-7.5-7.5h-88.997c-17.165 0-31.129 13.964-31.129 31.129v260.817h-4.354c-6.367 0-11.548 5.181-11.548 11.549v4.026c0 24.659 20.061 44.72 44.72 44.72h421.686c24.659 0 44.721-20.061 44.721-44.72v-4.026c-.001-6.368-5.181-11.549-11.549-11.549zm-3.452 15.575c0 16.388-13.333 29.72-29.721 29.72h-421.685c-16.388 0-29.72-13.332-29.72-29.72v-.575h481.126z"/><path d="m138.084 133.444c4.142 0 7.5-3.358 7.5-7.5s-3.358-7.5-7.5-7.5h-84.682c-4.142 0-7.5 3.358-7.5 7.5v231.946c0 4.142 3.358 7.5 7.5 7.5h405.322c4.143 0 7.5-3.358 7.5-7.5v-231.946c0-4.142-3.357-7.5-7.5-7.5h-84.683c-4.143 0-7.5 3.358-7.5 7.5s3.357 7.5 7.5 7.5h77.183v216.946h-126.107l-9.498-11.801c-2.599-3.227-7.319-3.737-10.546-1.14-3.227 2.598-3.736 7.319-1.14 10.545l1.928 2.396h-99.597l22.348-27.764c6.723-8.352 16.728-13.142 27.45-13.142s20.728 4.79 27.448 13.14l.341.424c2.595 3.227 7.315 3.74 10.545 1.145 3.228-2.596 3.74-7.317 1.145-10.545l-.343-.426c-7.995-9.933-19.251-16.315-31.636-18.164v-31.47h11.309c24.659 0 44.722-20.062 44.722-44.722v-10.617c0-6.737-5.48-12.217-12.217-12.217h-14.092c-11.401 0-21.814 4.295-29.722 11.344v-41.033h31.576c32.233 0 58.458-26.225 58.458-58.458v-19.788c0-9.735-7.92-17.655-17.655-17.655h-28.92c-21.851 0-40.928 12.059-50.959 29.863-10.031-17.804-29.108-29.863-50.958-29.863h-28.92c-9.735 0-17.656 7.92-17.656 17.655v19.785c0 20.616 10.536 39.313 28.183 50.016 3.543 2.147 8.154 1.017 10.302-2.524 2.147-3.542 1.018-8.154-2.524-10.302-13.125-7.959-20.961-21.862-20.961-37.189v-19.786c0-1.464 1.191-2.655 2.656-2.655h28.92c23.963 0 43.458 19.496 43.458 43.458v22.441h-26c-4.142 0-7.5 3.358-7.5 7.5s3.358 7.5 7.5 7.5h26v67.149l-20.393-27.337c-2.326-3.118-6.037-4.979-9.927-4.979h-35.09v-11.402c0-8.667-7.052-15.719-15.719-15.719h-61.051c-8.667 0-15.719 7.052-15.719 15.719v42.381c0 4.142 3.358 7.5 7.5 7.5s7.5-3.358 7.5-7.5v-42.381c0-.396.323-.719.719-.719h61.051c.396 0 .719.323.719.719v88.172c0 .396-.323.719-.719.719h-61.051c-.396 0-.719-.323-.719-.719v-13.829c0-4.142-3.358-7.5-7.5-7.5s-7.5 3.358-7.5 7.5v13.829c0 8.667 7.052 15.719 15.719 15.719h61.051c8.667 0 15.719-7.052 15.719-15.719v-61.77h33.779l31.632 42.402v36.481c-12.384 1.849-23.64 8.231-31.635 18.164l-29.918 37.169h-126.108v-216.946zm155.201 77.587h11.309v7.834c0 16.389-13.333 29.722-29.722 29.722h-11.309v-7.834c0-16.389 13.333-29.722 29.722-29.722zm13.737-125.589h28.92c1.464 0 2.655 1.191 2.655 2.655v19.786c0 23.963-19.495 43.458-43.458 43.458h-31.576v-22.441c0-23.962 19.496-43.458 43.459-43.458z"/><path d="m425.139 208.365c4.143 0 7.5-3.358 7.5-7.5s-3.357-7.5-7.5-7.5h-34.12c-4.143 0-7.5 3.358-7.5 7.5s3.357 7.5 7.5 7.5z"/><path d="m342.477 238.447c0 4.142 3.357 7.5 7.5 7.5h75.162c4.143 0 7.5-3.358 7.5-7.5s-3.357-7.5-7.5-7.5h-75.162c-4.143 0-7.5 3.357-7.5 7.5z"/><path d="m425.139 268.528h-75.162c-4.143 0-7.5 3.358-7.5 7.5s3.357 7.5 7.5 7.5h75.162c4.143 0 7.5-3.358 7.5-7.5s-3.357-7.5-7.5-7.5z"/><path d="m425.139 306.108h-75.162c-4.143 0-7.5 3.358-7.5 7.5s3.357 7.5 7.5 7.5h75.162c4.143 0 7.5-3.358 7.5-7.5s-3.357-7.5-7.5-7.5z"/><path d="m342.477 200.865c0 4.142 3.357 7.5 7.5 7.5h9.396c4.143 0 7.5-3.358 7.5-7.5s-3.357-7.5-7.5-7.5h-9.396c-4.143 0-7.5 3.358-7.5 7.5z"/></g></g></svg>